<svg id="svg" xmlns="http://www.w3.org/2000/svg" xmlns:xlink="http://www.w3.org/1999/xlink" width="400" height="400" viewBox="0, 0, 400,400"><g id="svgg"><path id="path0" d="M125.781 1.226 C 105.849 6.438,87.500 28.164,87.500 46.554 L 87.500 49.810 75.586 50.181 C 50.715 50.954,32.789 64.322,26.613 86.703 C 24.441 94.573,24.033 352.881,26.179 361.359 C 30.530 378.549,46.451 394.470,63.641 398.821 C 70.657 400.597,266.843 400.597,273.859 398.821 C 294.067 393.706,312.500 372.015,312.500 353.351 L 312.500 350.000 322.101 350.000 C 343.231 350.000,361.007 339.506,369.740 321.875 C 375.329 310.594,375.000 318.014,375.000 203.124 L 375.000 99.545 331.590 49.772 L 288.180 0.000 209.129 0.051 C 143.009 0.094,129.375 0.287,125.781 1.226 M262.500 53.598 C 262.500 93.092,265.749 102.808,283.093 115.185 C 295.495 124.035,299.778 124.979,327.561 124.991 L 350.044 125.000 349.827 214.648 L 349.609 304.297 347.558 308.594 C 344.516 314.967,340.515 319.103,334.554 322.038 L 329.330 324.609 231.250 324.609 L 133.170 324.609 127.946 322.038 C 121.985 319.103,117.984 314.967,114.942 308.594 L 112.891 304.297 112.891 175.000 L 112.891 45.703 114.942 41.406 C 118.961 32.987,126.157 27.162,134.220 25.803 C 136.239 25.462,165.928 25.142,200.195 25.092 L 262.500 25.000 262.500 53.598 M317.961 62.500 C 333.558 81.191,347.059 97.303,347.963 98.303 L 349.606 100.122 329.622 99.866 L 309.639 99.609 305.810 97.241 C 299.399 93.275,292.442 82.530,289.309 71.756 C 287.554 65.722,286.809 25.589,288.484 27.344 C 289.099 27.988,302.364 43.809,317.961 62.500 M87.500 191.242 C 87.500 319.305,87.147 310.545,92.760 321.875 C 96.830 330.091,107.409 340.670,115.625 344.740 C 126.756 350.254,122.259 350.000,208.758 350.000 L 286.719 350.000 286.711 352.539 C 286.691 359.151,279.913 368.168,272.054 372.038 L 266.830 374.609 168.750 374.609 L 70.670 374.609 65.446 372.038 C 59.485 369.103,55.484 364.967,52.442 358.594 L 50.391 354.297 50.172 228.516 C 49.946 98.744,50.012 95.676,53.153 89.574 C 58.273 79.627,65.240 75.999,79.492 75.860 L 87.500 75.781 87.500 191.242 M168.441 176.771 C 160.693 181.213,160.307 192.554,167.712 198.202 L 170.581 200.391 231.250 200.391 L 291.919 200.391 294.788 198.202 C 302.193 192.554,301.807 181.213,294.059 176.771 L 291.016 175.026 231.250 175.026 L 171.484 175.026 168.441 176.771 M168.888 238.815 C 160.279 243.057,160.199 256.261,168.753 261.286 C 173.042 263.806,289.458 263.806,293.747 261.286 C 302.362 256.225,302.206 242.922,293.484 238.784 C 289.366 236.829,172.859 236.858,168.888 238.815 " stroke="none" fill="#000000" fill-rule="evenodd"></path></g></svg>