<?xml version="1.0" standalone="no"?>
<!DOCTYPE svg PUBLIC "-//W3C//DTD SVG 20010904//EN"
 "http://www.w3.org/TR/2001/REC-SVG-20010904/DTD/svg10.dtd">
<svg version="1.0" xmlns="http://www.w3.org/2000/svg"
 width="512.000000pt" height="512.000000pt" viewBox="0 0 512.000000 512.000000"
 preserveAspectRatio="xMidYMid meet">

<g transform="translate(0.000000,512.000000) scale(0.100000,-0.100000)"
fill="#000000" stroke="none">
<path d="M3685 5110 c-448 -64 -836 -362 -1017 -781 -21 -51 -51 -140 -66
-198 -25 -97 -27 -122 -26 -291 1 -174 3 -192 32 -305 l32 -120 -40 -40 -40
-40 -643 642 -642 642 -457 165 c-252 91 -472 168 -490 171 -80 14 -177 -83
-163 -163 3 -18 80 -238 171 -490 l165 -457 642 -642 642 -643 -40 -40 -40
-40 -120 32 c-113 29 -131 31 -305 32 -169 1 -194 -1 -291 -26 -477 -121 -836
-484 -956 -965 -24 -95 -27 -128 -27 -273 0 -177 7 -227 55 -380 37 -117 67
-178 100 -202 30 -22 95 -34 136 -24 19 5 144 123 383 361 l355 354 139 -37
140 -38 38 -140 37 -139 -354 -355 c-238 -239 -356 -364 -361 -383 -10 -41 2
-106 24 -136 51 -69 301 -146 513 -158 210 -12 410 31 614 132 151 74 237 136
355 255 132 132 237 298 298 470 57 162 67 228 66 425 -1 168 -3 188 -32 300
l-32 120 40 40 40 40 803 -803 c660 -660 809 -804 840 -813 78 -21 86 -15 424
323 237 238 315 322 323 348 24 84 63 39 -808 912 l-807 808 40 40 40 40 120
-32 c113 -30 131 -31 305 -32 172 -1 192 1 295 28 600 156 1014 706 981 1306
-9 170 -70 398 -129 484 -34 49 -127 72 -180 45 -12 -6 -179 -168 -372 -360
l-350 -348 -139 37 -140 38 -38 140 -37 139 354 355 c238 239 356 364 361 383
10 41 -2 106 -24 136 -32 44 -177 103 -334 137 -86 18 -317 27 -403 14z m320
-307 c11 -7 -56 -79 -280 -303 -240 -240 -297 -302 -306 -333 -9 -34 -2 -67
56 -285 37 -136 74 -260 84 -277 9 -16 30 -37 46 -46 17 -10 141 -47 277 -84
218 -58 251 -65 285 -56 31 9 93 66 333 306 206 206 297 291 302 281 15 -28
21 -203 8 -287 -31 -216 -122 -398 -274 -552 -275 -278 -689 -371 -1036 -234
-97 39 -116 41 -163 23 -61 -23 -1159 -1123 -1177 -1179 -13 -43 -10 -64 27
-157 62 -156 79 -358 44 -525 -85 -413 -415 -725 -830 -785 -84 -13 -259 -7
-287 8 -10 5 75 96 281 302 240 240 297 302 306 333 9 34 2 67 -56 285 -37
136 -74 260 -84 277 -9 16 -30 37 -46 46 -17 10 -141 47 -277 84 -218 58 -251
65 -285 56 -31 -9 -93 -66 -333 -306 -214 -214 -297 -291 -302 -281 -5 8 -11
61 -14 118 -21 355 167 693 494 888 241 143 564 169 822 67 97 -39 116 -41
163 -23 61 23 1159 1123 1177 1179 13 43 10 64 -27 157 -110 279 -73 610 99
870 153 233 377 384 646 435 80 15 298 14 327 -2z m-3154 -350 l267 -96 616
-616 616 -616 -178 -178 -177 -177 -617 618 -617 617 -95 266 c-53 146 -96
269 -96 273 0 11 9 8 281 -91z m2926 -3110 l-177 -178 -415 415 -415 415 177
177 178 178 415 -415 415 -415 -178 -177z m640 -640 l-177 -178 -215 215 -215
215 177 177 178 178 215 -215 215 -215 -178 -177z"/>
</g>
</svg>
