<?xml version="1.0" standalone="no"?>
<!DOCTYPE svg PUBLIC "-//W3C//DTD SVG 20010904//EN"
 "http://www.w3.org/TR/2001/REC-SVG-20010904/DTD/svg10.dtd">
<svg version="1.0" xmlns="http://www.w3.org/2000/svg"
 width="512.000000pt" height="512.000000pt" viewBox="0 0 512.000000 512.000000"
 preserveAspectRatio="xMidYMid meet">

<g transform="translate(0.000000,512.000000) scale(0.100000,-0.100000)"
fill="#000000" stroke="none">
<path d="M468 5099 c-23 -12 -46 -35 -58 -59 -20 -39 -20 -54 -20 -2480 0
-2427 0 -2441 20 -2480 13 -26 34 -47 60 -60 39 -20 56 -20 1565 -20 1489 0
1527 0 1563 19 56 29 1098 1077 1117 1123 13 33 15 253 15 1948 0 1895 0 1911
-20 1950 -13 26 -34 47 -60 60 -39 20 -54 20 -2092 20 -2024 -1 -2054 -1
-2090 -21z m3962 -2014 l0 -1735 -465 0 c-447 0 -467 -1 -505 -20 -26 -13 -47
-34 -60 -60 -19 -38 -20 -58 -20 -505 l0 -465 -1345 0 -1345 0 0 2260 0 2260
1870 0 1870 0 0 -1735z m-220 -2038 c0 -1 -119 -121 -265 -267 l-265 -265 0
268 0 267 265 0 c146 0 265 -1 265 -3z"/>
<path d="M1068 4499 c-23 -12 -46 -35 -58 -59 -19 -38 -20 -58 -20 -670 0
-612 1 -632 20 -670 13 -26 34 -47 60 -60 38 -19 58 -20 670 -20 612 0 632 1
670 20 26 13 47 34 60 60 19 38 20 58 20 670 0 612 -1 632 -20 670 -13 26 -34
47 -60 60 -38 19 -57 20 -672 20 -610 -1 -634 -2 -670 -21z m1122 -729 l0
-450 -450 0 -450 0 0 450 0 450 450 0 450 0 0 -450z"/>
<path d="M1668 3899 c-43 -22 -78 -81 -78 -129 0 -74 76 -150 149 -150 77 0
151 74 151 150 0 50 -35 107 -80 130 -49 25 -94 25 -142 -1z"/>
<path d="M2868 4299 c-43 -22 -78 -81 -78 -129 0 -50 35 -107 80 -130 38 -19
58 -20 590 -20 532 0 552 1 590 20 45 23 80 80 80 130 0 50 -35 107 -80 130
-38 19 -57 20 -592 20 -531 -1 -554 -2 -590 -21z"/>
<path d="M2868 3699 c-43 -22 -78 -81 -78 -129 0 -50 35 -107 80 -130 38 -19
58 -20 590 -20 532 0 552 1 590 20 45 23 80 80 80 130 0 50 -35 107 -80 130
-38 19 -57 20 -592 20 -531 -1 -554 -2 -590 -21z"/>
<path d="M1068 2689 c-23 -12 -46 -35 -58 -59 -19 -38 -20 -58 -20 -670 0
-612 1 -632 20 -670 13 -26 34 -47 60 -60 38 -19 58 -20 670 -20 612 0 632 1
670 20 26 13 47 34 60 60 19 38 20 58 20 670 0 612 -1 632 -20 670 -13 26 -34
47 -60 60 -38 19 -57 20 -672 20 -610 -1 -634 -2 -670 -21z m1122 -729 l0
-450 -450 0 -450 0 0 450 0 450 450 0 450 0 0 -450z"/>
<path d="M2868 2539 c-43 -22 -78 -81 -78 -129 0 -50 35 -107 80 -130 38 -19
58 -20 590 -20 532 0 552 1 590 20 45 23 80 80 80 130 0 50 -35 107 -80 130
-38 19 -57 20 -592 20 -531 -1 -554 -2 -590 -21z"/>
<path d="M2868 1939 c-43 -22 -78 -81 -78 -129 0 -50 35 -107 80 -130 38 -19
58 -20 590 -20 532 0 552 1 590 20 45 23 80 80 80 130 0 50 -35 107 -80 130
-38 19 -57 20 -592 20 -531 -1 -554 -2 -590 -21z"/>
</g>
</svg>
