<?xml version="1.0" encoding="UTF-8"?>
<!DOCTYPE svg PUBLIC "-//W3C//DTD SVG 1.1//EN" "http://www.w3.org/Graphics/SVG/1.1/DTD/svg11.dtd">
<svg xmlns="http://www.w3.org/2000/svg" version="1.1" width="512px" height="512px" style="shape-rendering:geometricPrecision; text-rendering:geometricPrecision; image-rendering:optimizeQuality; fill-rule:evenodd; clip-rule:evenodd" xmlns:xlink="http://www.w3.org/1999/xlink">
<g><path style="opacity:0.984" fill="#0088CC" d="M 121.5,-0.5 C 168.167,-0.5 214.833,-0.5 261.5,-0.5C 265.479,1.31481 268.312,4.31481 270,8.5C 270.5,16.1594 270.666,23.8261 270.5,31.5C 304.835,31.3333 339.168,31.5 373.5,32C 378.428,33.9268 381.594,37.4268 383,42.5C 383.667,195.167 383.667,347.833 383,500.5C 381.401,505.594 378.234,509.261 373.5,511.5C 251.833,511.5 130.167,511.5 8.5,511.5C 7.01307,510.196 5.3464,509.03 3.5,508C 2.30342,505.985 0.970083,504.151 -0.5,502.5C -0.5,348.5 -0.5,194.5 -0.5,40.5C 2.05182,36.7841 5.38515,33.9508 9.5,32C 43.4984,31.5 77.4984,31.3333 111.5,31.5C 111.334,24.4921 111.5,17.4921 112,10.5C 113.599,5.40601 116.766,1.73934 121.5,-0.5 Z M 142.5,29.5 C 175.167,29.5 207.833,29.5 240.5,29.5C 240.5,40.8333 240.5,52.1667 240.5,63.5C 207.833,63.5 175.167,63.5 142.5,63.5C 142.5,52.1667 142.5,40.8333 142.5,29.5 Z M 29.5,62.5 C 56.8333,62.5 84.1667,62.5 111.5,62.5C 111.334,69.175 111.5,75.8417 112,82.5C 113.35,87.1849 116.183,90.6849 120.5,93C 143.939,94.1521 167.439,94.6521 191,94.5C 214.561,94.6521 238.061,94.1521 261.5,93C 265.667,91.5 268.5,88.6667 270,84.5C 270.5,77.1742 270.666,69.8409 270.5,62.5C 297.833,62.5 325.167,62.5 352.5,62.5C 352.5,202.167 352.5,341.833 352.5,481.5C 244.833,481.5 137.167,481.5 29.5,481.5C 29.5,341.833 29.5,202.167 29.5,62.5 Z"/></g>
<g><path style="opacity:0.979" fill="#0088CC" d="M 511.5,40.5 C 511.5,172.833 511.5,305.167 511.5,437.5C 500.379,459.741 489.213,482.075 478,504.5C 475.604,507.067 473.104,509.4 470.5,511.5C 466.5,511.5 462.5,511.5 458.5,511.5C 456.132,510.217 453.965,508.55 452,506.5C 440.062,482.956 428.395,459.29 417,435.5C 416.333,304.833 416.333,174.167 417,43.5C 418.09,37.412 421.59,33.5787 427.5,32C 452.167,31.3333 476.833,31.3333 501.5,32C 505.615,33.9508 508.948,36.7841 511.5,40.5 Z M 447.5,62.5 C 458.833,62.5 470.167,62.5 481.5,62.5C 481.5,73.5 481.5,84.5 481.5,95.5C 470.167,95.5 458.833,95.5 447.5,95.5C 447.5,84.5 447.5,73.5 447.5,62.5 Z M 447.5,126.5 C 458.833,126.5 470.167,126.5 481.5,126.5C 481.667,227.167 481.5,327.834 481,428.5C 475.755,439.323 470.255,449.99 464.5,460.5C 458.745,449.99 453.245,439.323 448,428.5C 447.5,327.834 447.333,227.167 447.5,126.5 Z"/></g>
<g><path style="opacity:0.944" fill="#0088CC" d="M 139.5,143.5 C 150.573,143.018 156.906,148.185 158.5,159C 158.344,162.817 157.178,166.317 155,169.5C 143.138,181.696 130.971,193.53 118.5,205C 112.686,207.169 107.019,206.835 101.5,204C 94.3017,197.136 87.4684,189.97 81,182.5C 77.1628,167.309 82.9962,159.809 98.5,160C 103.173,161.832 107.173,164.666 110.5,168.5C 117.652,161.848 124.652,155.015 131.5,148C 134.099,146.205 136.766,144.705 139.5,143.5 Z"/></g>
<g><path style="opacity:0.957" fill="#0088CC" d="M 203.5,159.5 C 232.835,159.333 262.169,159.5 291.5,160C 302.28,164.729 305.447,172.563 301,183.5C 298.736,186.433 295.902,188.6 292.5,190C 262.5,190.667 232.5,190.667 202.5,190C 191.708,184.324 189.208,176.158 195,165.5C 197.322,162.605 200.155,160.605 203.5,159.5 Z"/></g>
<g><path style="opacity:0.956" fill="#0088CC" d="M 137.5,248.5 C 155.223,247.715 161.39,255.715 156,272.5C 143.833,284.667 131.667,296.833 119.5,309C 113.833,312.333 108.167,312.333 102.5,309C 95.6667,302.167 88.8333,295.333 82,288.5C 76.5721,271.591 82.7388,263.758 100.5,265C 104.579,267.075 108.079,269.908 111,273.5C 119.427,264.568 128.26,256.235 137.5,248.5 Z"/></g>
<g><path style="opacity:0.957" fill="#0088CC" d="M 201.5,264.5 C 231.835,264.333 262.168,264.5 292.5,265C 298.925,267.609 302.592,272.442 303.5,279.5C 302.828,288.336 298.162,293.503 289.5,295C 261.5,295.667 233.5,295.667 205.5,295C 196.833,293.498 192.166,288.331 191.5,279.5C 192.53,272.831 195.864,267.831 201.5,264.5 Z"/></g>
<g><path style="opacity:0.943" fill="#0088CC" d="M 138.5,352.5 C 150.338,351.231 157.004,356.397 158.5,368C 158.344,371.817 157.178,375.317 155,378.5C 143.833,389.667 132.667,400.833 121.5,412C 115.846,415.739 109.846,416.406 103.5,414C 95.3333,407.167 87.8333,399.667 81,391.5C 76.9947,378.699 81.4947,371.032 94.5,368.5C 97.6979,368.622 100.698,369.455 103.5,371C 105.683,373.35 108.016,375.517 110.5,377.5C 117.986,370.515 125.319,363.348 132.5,356C 134.727,355.059 136.727,353.892 138.5,352.5 Z"/></g>
<g><path style="opacity:0.956" fill="#0088CC" d="M 203.5,368.5 C 232.835,368.333 262.169,368.5 291.5,369C 302.604,373.56 305.771,381.394 301,392.5C 298.635,395.869 295.468,398.036 291.5,399C 262.167,399.667 232.833,399.667 203.5,399C 192.396,394.44 189.229,386.606 194,375.5C 196.529,372.115 199.696,369.782 203.5,368.5 Z"/></g>
</svg>
