<?xml version="1.0" standalone="no"?>
<!DOCTYPE svg PUBLIC "-//W3C//DTD SVG 20010904//EN"
 "http://www.w3.org/TR/2001/REC-SVG-20010904/DTD/svg10.dtd">
<svg version="1.0" xmlns="http://www.w3.org/2000/svg"
 width="512.000000pt" height="512.000000pt" viewBox="0 0 512.000000 512.000000"
 preserveAspectRatio="xMidYMid meet">

<g transform="translate(0.000000,512.000000) scale(0.100000,-0.100000)"
fill="#000000" stroke="none">
<path d="M2494 5102 c-32 -18 -2286 -2126 -2338 -2187 -54 -64 -42 -168 25
-218 15 -11 47 -22 72 -24 38 -5 54 -1 91 21 l46 27 0 -1211 0 -1210 -136 0
c-120 0 -141 -2 -174 -21 -44 -25 -80 -83 -80 -129 0 -46 36 -104 80 -129 l38
-21 2441 0 c2378 0 2443 0 2479 19 43 22 82 84 82 131 0 47 -39 109 -82 131
-31 16 -59 19 -173 19 l-135 0 0 1216 0 1215 35 -27 c68 -52 169 -39 218 28
28 38 33 115 10 155 -10 18 -72 83 -138 144 l-120 113 -5 690 -5 691 -23 33
c-46 64 -31 62 -574 62 -466 0 -495 -1 -522 -19 -57 -38 -66 -64 -66 -199 0
-81 -4 -122 -10 -120 -6 2 -203 183 -437 403 -234 220 -440 408 -457 417 -17
9 -49 17 -71 17 -22 0 -54 -8 -71 -17z m1054 -1256 l882 -828 0 -1359 0 -1359
-1870 0 -1870 0 0 1354 0 1355 937 880 938 880 50 -47 c27 -26 447 -420 933
-876z m882 34 c0 -242 -3 -440 -6 -440 -3 0 -135 122 -295 272 l-289 272 0
168 0 168 295 0 295 0 0 -440z"/>
<path d="M1995 3156 c-37 -17 -70 -52 -84 -89 -7 -18 -11 -131 -11 -298 l0
-269 -273 0 c-304 0 -319 -3 -364 -70 l-23 -33 0 -747 0 -747 23 -34 c49 -74
-48 -69 1297 -69 1345 0 1248 -5 1297 69 l23 34 0 747 0 747 -22 33 c-46 67
-61 70 -365 70 l-272 0 -3 284 c-3 269 -4 286 -24 312 -11 15 -33 37 -48 48
-27 21 -39 21 -574 23 -441 2 -553 0 -577 -11z m925 -471 l0 -185 -360 0 -360
0 0 185 0 185 360 0 360 0 0 -185z m660 -635 l0 -150 -1020 0 -1020 0 0 150 0
150 1020 0 1020 0 0 -150z m-1168 -499 c9 -89 78 -148 164 -138 78 8 134 72
134 151 l0 36 435 0 435 0 0 -250 0 -250 -1020 0 -1020 0 0 250 0 250 434 0
433 0 5 -49z"/>
</g>
</svg>
