<?xml version="1.0" standalone="no"?>
<!DOCTYPE svg PUBLIC "-//W3C//DTD SVG 20010904//EN"
 "http://www.w3.org/TR/2001/REC-SVG-20010904/DTD/svg10.dtd">
<svg version="1.0" xmlns="http://www.w3.org/2000/svg"
 width="512.000000pt" height="512.000000pt" viewBox="0 0 512.000000 512.000000"
 preserveAspectRatio="xMidYMid meet">

<g transform="translate(0.000000,512.000000) scale(0.100000,-0.100000)"
fill="#000000" stroke="none">
<path d="M2488 5099 c-23 -12 -46 -35 -58 -59 -19 -38 -20 -58 -20 -725 l0
-686 -511 -877 c-281 -482 -513 -879 -515 -881 -1 -1 -20 25 -41 58 -27 44
-49 67 -79 81 -52 26 -80 25 -133 -2 -42 -22 -65 -58 -554 -863 -590 -973
-577 -951 -577 -996 0 -47 38 -108 80 -130 34 -18 118 -19 2478 -19 2429 0
2443 0 2482 20 45 23 80 80 80 131 0 43 8 29 -577 994 -489 805 -512 841 -554
863 -53 27 -81 28 -133 2 -30 -14 -52 -37 -79 -81 -21 -33 -40 -59 -41 -58 -2
2 -234 399 -515 881 l-511 877 0 160 0 161 478 0 c447 0 479 1 505 19 56 36
83 104 66 166 -6 19 -60 94 -128 176 l-119 142 120 144 c81 96 123 155 128
179 15 67 -24 144 -86 170 -27 11 -126 14 -499 14 -461 0 -465 0 -465 20 0 40
-39 99 -80 120 -49 25 -94 25 -142 -1z m790 -456 c-90 -107 -101 -124 -105
-167 -8 -65 1 -88 63 -161 l55 -65 -290 0 -291 0 0 205 0 205 292 0 c276 0
290 -1 276 -17z m-505 -1718 c114 -195 207 -357 207 -359 0 -3 -28 7 -62 21
-71 28 -124 27 -167 -5 -14 -10 -60 -68 -103 -128 -42 -60 -82 -109 -88 -109
-6 0 -46 49 -88 109 -43 60 -89 118 -103 128 -43 32 -96 33 -167 5 -34 -14
-62 -24 -62 -21 0 9 415 714 420 714 3 0 99 -160 213 -355z m-429 -811 c64
-91 122 -164 140 -175 41 -25 111 -25 152 0 18 11 76 84 140 175 59 86 113
156 119 155 5 0 87 -35 180 -77 l170 -77 157 -269 c87 -148 156 -272 154 -275
-1 -3 -175 -291 -386 -638 l-383 -633 -227 0 -228 0 -382 632 c-211 348 -385
636 -386 639 -2 3 67 127 154 275 l157 268 170 77 c94 43 175 78 180 78 6 1
60 -69 119 -155z m-752 -1171 l387 -638 -390 -3 c-214 -1 -565 -1 -779 0
l-390 3 386 638 c213 350 390 637 393 637 3 0 180 -287 393 -637z m2723 -3
l385 -635 -390 -3 c-214 -1 -565 -1 -779 0 l-390 3 387 638 c213 350 390 636
394 635 4 -2 181 -289 393 -638z"/>
</g>
</svg>
