<?xml version="1.0" standalone="no"?>
<!DOCTYPE svg PUBLIC "-//W3C//DTD SVG 20010904//EN"
 "http://www.w3.org/TR/2001/REC-SVG-20010904/DTD/svg10.dtd">
<svg version="1.0" xmlns="http://www.w3.org/2000/svg"
 width="512.000000pt" height="512.000000pt" viewBox="0 0 512.000000 512.000000"
 preserveAspectRatio="xMidYMid meet">

<g transform="translate(0.000000,512.000000) scale(0.100000,-0.100000)"
fill="#000000" stroke="none">
<path d="M78 5099 c-23 -12 -46 -35 -58 -59 -20 -39 -20 -54 -20 -2480 0
-2427 0 -2441 20 -2480 13 -26 34 -47 60 -60 39 -20 53 -20 2480 -20 2427 0
2441 0 2480 20 26 13 47 34 60 60 20 39 20 56 20 1196 l0 1157 -25 42 c-43 75
-46 75 -520 75 l-415 0 -2 1234 c-3 1229 -3 1235 -24 1262 -11 15 -33 37 -48
48 l-27 21 -1972 2 c-1948 2 -1972 2 -2009 -18z m3782 -1414 l0 -1135 -1559
-2 c-1558 -3 -1560 -3 -1587 -24 -50 -37 -69 -72 -69 -124 0 -52 19 -87 69
-124 26 -20 45 -21 299 -26 l272 -5 3 -167 2 -168 -257 0 c-230 0 -262 -2
-299 -19 -105 -48 -121 -189 -30 -254 30 -21 41 -22 306 -27 l275 -5 3 -223
c1 -149 -1 -222 -8 -222 -6 0 -28 12 -49 26 -114 75 -271 71 -402 -11 -178
-112 -231 -228 -145 -319 65 -69 149 -67 233 7 118 105 122 105 262 -26 l110
-102 1 -217 0 -218 -495 0 -495 0 0 2260 0 2260 1780 0 1780 0 0 -1135z
m-1960 -1446 c0 -6 -15 -38 -32 -72 -51 -96 -146 -182 -245 -223 l-33 -14 0
160 0 160 155 0 c107 0 155 -3 155 -11z m2306 -49 c8 -30 34 -95 59 -145 96
-194 272 -341 483 -405 l72 -22 -2 -345 -3 -346 -52 -13 c-257 -66 -492 -300
-556 -554 l-14 -55 -990 -3 -989 -2 -13 52 c-19 79 -93 225 -148 293 -101 124
-249 223 -393 264 l-65 18 0 348 0 348 64 17 c142 39 293 141 394 265 55 68
129 214 148 293 l13 52 989 -2 990 -3 13 -55z m614 -100 l0 -160 -25 10 c-125
48 -237 160 -285 285 l-10 25 160 0 160 0 0 -160z m-3117 -1527 c61 -39 128
-112 165 -180 17 -34 32 -66 32 -72 0 -8 -48 -11 -155 -11 l-155 0 0 159 0
160 36 -15 c20 -8 55 -27 77 -41z m3114 -260 c-2 -2 -75 -2 -161 -1 l-156 3
30 63 c39 83 133 178 220 221 l65 32 3 -157 c1 -86 1 -159 -1 -161z"/>
<path d="M745 4145 c-50 -18 -92 -66 -100 -116 -9 -52 23 -122 67 -149 32 -20
48 -20 804 -20 l771 0 33 23 c48 32 72 82 67 136 -6 55 -32 90 -87 119 l-44
22 -736 0 c-606 -1 -742 -3 -775 -15z"/>
<path d="M717 3168 c-78 -46 -97 -151 -39 -220 52 -61 -29 -58 1400 -58 l1308
0 44 23 c103 53 108 196 8 257 -33 20 -53 20 -1358 20 l-1325 0 -38 -22z"/>
<path d="M2989 1845 c-198 -64 -346 -224 -399 -431 -25 -97 -25 -180 -1 -276
48 -187 167 -332 336 -408 85 -39 147 -51 246 -51 203 0 379 92 493 258 234
343 57 811 -346 919 -86 23 -239 17 -329 -11z m317 -303 c23 -11 61 -43 86
-71 103 -115 104 -277 1 -392 -65 -72 -126 -99 -223 -99 -122 1 -210 55 -268
165 -22 42 -26 63 -26 130 0 67 4 88 26 130 36 69 99 127 165 151 56 21 187
13 239 -14z"/>
</g>
</svg>
