<svg id="svg" xmlns="http://www.w3.org/2000/svg" xmlns:xlink="http://www.w3.org/1999/xlink" width="400" height="400" viewBox="0, 0, 400,400"><g id="svgg"><path id="path0" d="M191.177 1.161 C 187.403 2.593,184.374 4.746,178.516 10.159 C 148.474 37.916,113.942 51.457,66.797 53.968 C 43.015 55.234,35.522 59.048,31.730 71.818 C 28.824 81.603,29.329 170.013,32.452 198.438 C 42.910 293.596,87.065 355.331,169.922 390.638 C 199.352 403.179,202.925 403.028,236.233 387.837 C 315.548 351.664,357.445 291.229,367.535 198.438 C 370.677 169.549,371.187 81.640,368.270 71.818 C 364.474 59.035,357.031 55.256,333.071 53.944 C 285.068 51.316,252.358 38.330,220.431 9.226 C 210.978 0.609,200.350 -2.321,191.177 1.161 M205.937 29.102 C 241.221 60.756,279.458 75.761,330.677 78.052 C 338.312 78.393,344.760 78.875,345.007 79.121 C 345.996 80.111,345.713 173.724,344.687 184.766 C 335.574 282.866,294.986 339.647,210.685 372.228 C 199.458 376.568,200.395 376.569,189.231 372.195 C 104.565 339.026,64.424 282.846,55.313 184.766 C 54.287 173.724,54.004 80.111,54.993 79.121 C 55.240 78.875,61.688 78.393,69.323 78.052 C 119.973 75.786,158.876 60.643,193.324 29.786 C 200.773 23.113,199.348 23.190,205.937 29.102 M173.296 111.684 C 165.296 114.174,164.855 115.655,164.849 140.039 L 164.844 160.938 144.038 160.938 C 113.301 160.938,114.836 159.086,114.861 196.145 C 114.886 233.201,113.264 231.250,144.038 231.250 L 164.844 231.250 164.844 252.056 C 164.844 282.839,162.886 281.216,200.000 281.216 C 237.114 281.216,235.156 282.839,235.156 252.056 L 235.156 231.250 255.962 231.250 C 286.736 231.250,285.114 233.201,285.139 196.145 C 285.164 159.086,286.699 160.938,255.962 160.938 L 235.156 160.938 235.156 140.131 C 235.156 109.524,237.344 111.388,201.172 111.180 C 186.992 111.099,174.448 111.326,173.296 111.684 M211.086 155.664 C 211.442 185.822,210.272 184.651,240.430 185.008 L 260.938 185.251 260.938 196.084 L 260.938 206.916 240.430 207.169 C 210.338 207.540,211.441 206.436,211.086 236.523 L 210.843 257.031 200.000 257.031 L 189.157 257.031 188.914 236.523 C 188.559 206.436,189.662 207.540,159.570 207.169 L 139.063 206.916 139.063 196.084 L 139.063 185.251 159.570 185.008 C 182.553 184.736,183.804 184.457,187.082 178.879 C 188.553 176.375,188.690 174.635,188.914 155.664 L 189.157 135.156 200.000 135.156 L 210.843 135.156 211.086 155.664 " stroke="none" fill="#000000" fill-rule="evenodd"></path></g></svg>